# xmcd CD database file
#
# Track frame offsets:
#	150
#	25647
#	66862
#	93305
#	120398
#	134745
#	160127
#	168989
#	191034
#	216659
#	244219
#	266221
#
# Disc length: 3828 seconds
#
# Revision: 0
# Processed by: cddbd v1.5.2PL0 Copyright (c) Steve Scherf et al.
# Submitted via: CDex 1.77
#
DISCID=b20ef20c
DTITLE=Colin Vallon Trio - Les Ombres
DYEAR=2004
DGENRE=Jazz
TTITLE0=LES OMBRES
TTITLE1=UNE ROSE EN HIVER
TTITLE2=LA CONDITION HUMAINE
TTITLE3=ALL ALONE
TTITLE4=QUIET IN THE STORM
TTITLE5=LE TEMPS NE S'ARRETE JAMAIS
TTITLE6=TEMPS SUSPENDU
TTITLE7=HORIZON ESTOMPE
TTITLE8=GUEULE DE BOIS
TTITLE9=JUSTE UNE
TTITLE10=SOMEBODY'S BEHIND YOU
TTITLE11=VOYAGE DE NUIT
EXTD=YEAR: 2004
EXTT0=
EXTT1=
EXTT2=
EXTT3=
EXTT4=
EXTT5=
EXTT6=
EXTT7=
EXTT8=
EXTT9=
EXTT10=
EXTT11=
PLAYORDER=
